<?xml version="1.0" encoding="UTF-8" standalone="no"?>
<!-- Created with Inkscape (http://www.inkscape.org/) -->

<svg
   xmlns:dc="http://purl.org/dc/elements/1.1/"
   xmlns:cc="http://creativecommons.org/ns#"
   xmlns:rdf="http://www.w3.org/1999/02/22-rdf-syntax-ns#"
   xmlns:svg="http://www.w3.org/2000/svg"
   xmlns="http://www.w3.org/2000/svg"
   xmlns:sodipodi="http://sodipodi.sourceforge.net/DTD/sodipodi-0.dtd"
   xmlns:inkscape="http://www.inkscape.org/namespaces/inkscape"
   width="32"
   height="32"
   id="svg2"
   version="1.1"
   inkscape:version="0.48.5 r10040"
   sodipodi:docname="cat.svg">
  <defs
     id="defs4" />
  <sodipodi:namedview
     id="base"
     pagecolor="#ffffff"
     bordercolor="#666666"
     borderopacity="1.0"
     inkscape:pageopacity="0.0"
     inkscape:pageshadow="2"
     inkscape:zoom="1.4990664"
     inkscape:cx="-187.8234"
     inkscape:cy="17.178965"
     inkscape:document-units="px"
     inkscape:current-layer="layer1"
     showgrid="false"
     inkscape:window-width="1366"
     inkscape:window-height="702"
     inkscape:window-x="0"
     inkscape:window-y="27"
     inkscape:window-maximized="1" />
  <metadata
     id="metadata7">
    <rdf:RDF>
      <cc:Work
         rdf:about="">
        <dc:format>image/svg+xml</dc:format>
        <dc:type
           rdf:resource="http://purl.org/dc/dcmitype/StillImage" />
        <dc:title />
      </cc:Work>
    </rdf:RDF>
  </metadata>
  <g
     inkscape:label="レイヤー 1"
     inkscape:groupmode="layer"
     id="layer1"
     transform="translate(0,-1020.3622)">
    <g
       style="font-size:9.11632061px;font-style:normal;font-variant:normal;font-weight:bold;font-stretch:normal;line-height:73.00000191%;letter-spacing:-0.15148199px;word-spacing:0px;fill:#000000;fill-opacity:1;stroke:none;font-family:Montserrat;-inkscape-font-specification:Montserrat Bold"
       id="text2987" />
    <rect
       style="color:#000000;fill:#ff6600;stroke:none;stroke-width:1.20300746;marker:none;visibility:visible;display:inline;overflow:visible;enable-background:accumulate"
       id="rect2985-0"
       width="32"
       height="32"
       x="0"
       y="1020.3621" />
    <g
       style="font-size:9.11632061px;font-style:normal;font-variant:normal;font-stretch:normal;line-height:73.00000191%;letter-spacing:-0.15148199px;word-spacing:0px;fill:#ffffff;fill-opacity:1;stroke:none;font-family:Montserrat;-inkscape-font-specification:Montserrat Semi-Light"
       id="text2987-8"
       transform="translate(-0.1412982,0)">
      <path
         d="m 8.557861,1028.9141 c -1.9053091,0 -3.3730386,1.3948 -3.3730386,3.2181 0,1.8415 1.4494968,3.2545 3.327457,3.2545 0.9207475,0 1.8597296,-0.4284 2.5161046,-1.0939 l -0.720189,-0.8023 c -0.4740486,0.465 -1.1213085,0.7476 -1.7321014,0.7476 -1.2033531,0 -2.1423353,-0.9299 -2.1423353,-2.1241 0,-1.1852 0.9389822,-2.115 2.1423353,-2.115 0.6290255,0 1.2762854,0.3191 1.7321014,0.8296 l 0.711073,-0.8934 c -0.61991,-0.6291 -1.5497759,-1.0211 -2.461407,-1.0211"
         style="fill:#ffffff"
         id="path3234"
         inkscape:connector-curvature="0" />
      <path
         d="m 15.857689,1035.332 -0.0091,-3.1907 c -0.0091,-1.0848 -0.729306,-1.7321 -2.00559,-1.7321 -0.893399,0 -1.440379,0.2097 -2.142335,0.6017 l 0.428467,0.8205 c 0.501397,-0.3009 0.993679,-0.4559 1.449495,-0.4559 0.729305,0 1.103074,0.3374 1.103074,0.9026 l 0,0.1276 -1.422146,0 c -1.18512,0.01 -1.850613,0.5652 -1.850613,1.4677 0,0.8661 0.656376,1.5133 1.704752,1.5133 0.69284,0 1.23982,-0.2188 1.577124,-0.6472 l 0,0.5925 1.166889,0 m -2.461407,-0.8569 c -0.537862,0 -0.86605,-0.2644 -0.86605,-0.6746 0,-0.4285 0.291723,-0.6017 0.920748,-0.6017 l 1.230703,0 0,0.4376 c -0.06381,0.474 -0.601677,0.8387 -1.285401,0.8387"
         style="fill:#ffffff"
         id="path3236"
         inkscape:connector-curvature="0" />
      <path
         d="m 19.615684,1034.1378 c -0.264373,0.1276 -0.492281,0.2006 -0.69284,0.2006 -0.319071,0 -0.510514,-0.155 -0.510514,-0.62 l 0,-2.197 1.394797,0 0,-0.866 -1.394797,0 0,-1.3401 -1.176005,0 0,1.3401 -0.692841,0 0.0091,0.866 0.683724,0 0,2.4067 c 0,1.0028 0.638143,1.4586 1.431262,1.4586 0.428467,0 0.847818,-0.1276 1.221587,-0.3555 l -0.27349,-0.8934"
         style="fill:#ffffff"
         id="path3238"
         inkscape:connector-curvature="0" />
      <path
         d="m 22.638533,1030.4183 c -1.45861,0 -2.479639,1.0028 -2.479639,2.4888 0,1.4677 0.99368,2.4705 2.506988,2.4705 0.856933,0 1.568008,-0.3099 2.051172,-0.8387 l -0.638142,-0.6655 c -0.34642,0.3556 -0.811353,0.547 -1.31275,0.547 -0.711073,0 -1.23982,-0.4194 -1.394797,-1.1122 l 3.600946,0 c 0.118512,-1.7686 -0.619911,-2.8899 -2.333778,-2.8899 m -1.294517,2.0968 c 0.109395,-0.7202 0.601678,-1.176 1.303634,-1.176 0.738421,0 1.221587,0.4558 1.248935,1.176 l -2.552569,0"
         style="fill:#ffffff"
         id="path3240"
         inkscape:connector-curvature="0" />
      <path
         d="m 11.058801,1037.1097 0,0.7293 c -0.337304,-0.4923 -0.884284,-0.7749 -1.5862399,-0.7658 -1.2671673,0 -2.133219,0.939 -2.133219,2.3156 0,1.4039 0.8751681,2.352 2.1696843,2.352 0.6928396,0 1.2215876,-0.2735 1.5497746,-0.7658 l 0,0.5744 c 0,0.7748 -0.556097,1.258 -1.4312624,1.258 -0.583444,0 -1.0757263,-0.1823 -1.5224256,-0.5105 l -0.4740487,0.8569 c 0.5743277,0.392 1.2762857,0.6473 2.0602885,0.6473 1.5406562,0 2.5525702,-0.8843 2.5525702,-2.2791 l 0,-4.4123 -1.185122,0 m -1.2945176,3.7012 c -0.7748865,0 -1.2945176,-0.5743 -1.3036339,-1.3948 0.00912,-0.8113 0.5378637,-1.3948 1.3036339,-1.3948 0.7657706,0 1.2945176,0.5744 1.2945176,1.3948 0,0.8205 -0.528747,1.3948 -1.2945176,1.3948"
         style="fill:#ffffff"
         id="path3242"
         inkscape:connector-curvature="0" />
      <path
         d="m 15.616611,1037.0732 c -1.522424,0 -2.570803,0.9937 -2.570803,2.4706 0,1.4859 1.048379,2.4887 2.570803,2.4887 1.53154,0 2.579918,-1.0028 2.579918,-2.4887 0,-1.4769 -1.048378,-2.4706 -2.579918,-2.4706 m 0,1.0211 c 0.811351,0 1.376564,0.5925 1.376564,1.4677 0,0.8752 -0.565213,1.4768 -1.376564,1.4768 -0.802236,0 -1.367448,-0.6016 -1.367448,-1.4768 0,-0.8752 0.565212,-1.4677 1.367448,-1.4677"
         style="fill:#ffffff"
         id="path3244"
         inkscape:connector-curvature="0" />
      <path
         d="m 20.259459,1038.0487 0,-0.939 -1.185122,0 0,4.8772 1.185122,0 0,-2.352 c 0,-0.8842 0.629027,-1.4859 1.65917,-1.4221 l 0,-1.1487 c -0.756654,0.01 -1.330983,0.3465 -1.65917,0.9846"
         style="fill:#ffffff"
         id="path3246"
         inkscape:connector-curvature="0" />
      <path
         d="m 27.097774,1037.1097 -1.194238,0 -1.267168,3.5463 -1.385681,-3.5463 -1.230703,0 2.014707,4.7952 -0.145862,0.3191 c -0.154977,0.3373 -0.401118,0.4923 -0.711073,0.4923 -0.218791,0 -0.401118,-0.073 -0.629026,-0.2462 l -0.510514,0.9025 c 0.373769,0.3009 0.738423,0.4376 1.212471,0.4376 0.774886,0 1.349216,-0.4011 1.65917,-1.2125 l 2.187917,-5.488"
         style="fill:#ffffff"
         id="path3248"
         inkscape:connector-curvature="0" />
    </g>
    <rect
       style="color:#000000;fill:#ffffff;stroke:#000000;stroke-width:1.20300746;stroke-linecap:butt;stroke-linejoin:round;stroke-miterlimit:4;stroke-opacity:1;stroke-dasharray:none;stroke-dashoffset:0;marker:none;visibility:visible;display:inline;overflow:visible;enable-background:accumulate"
       id="rect2985-0-8"
       width="30.796991"
       height="30.796993"
       x="-0.72269499"
       y="955.57971" />
    <g
       style="font-size:9.11632061px;font-style:normal;font-variant:normal;font-stretch:normal;line-height:73.00000191%;letter-spacing:-0.15148199px;word-spacing:0px;fill:#000000;fill-opacity:1;stroke:none;font-family:Montserrat;-inkscape-font-specification:Montserrat Semi-Light"
       id="text2987-8-6"
       transform="translate(-1.3241988,-65.383967)">
      <path
         inkscape:connector-curvature="0"
         d="m 8.557861,1028.9141 c -1.9053091,0 -3.3730386,1.3948 -3.3730386,3.2181 0,1.8415 1.4494968,3.2545 3.327457,3.2545 0.9207475,0 1.8597296,-0.4284 2.5161046,-1.0939 l -0.720189,-0.8023 c -0.4740486,0.465 -1.1213085,0.7476 -1.7321014,0.7476 -1.2033531,0 -2.1423353,-0.9299 -2.1423353,-2.1241 0,-1.1852 0.9389822,-2.115 2.1423353,-2.115 0.6290255,0 1.2762854,0.3191 1.7321014,0.8296 l 0.711073,-0.8934 c -0.61991,-0.6291 -1.5497759,-1.0211 -2.461407,-1.0211"
         id="path3234-6" />
      <path
         inkscape:connector-curvature="0"
         d="m 15.857689,1035.332 -0.0091,-3.1907 c -0.0091,-1.0848 -0.729306,-1.7321 -2.00559,-1.7321 -0.893399,0 -1.440379,0.2097 -2.142335,0.6017 l 0.428467,0.8205 c 0.501397,-0.3009 0.993679,-0.4559 1.449495,-0.4559 0.729305,0 1.103074,0.3374 1.103074,0.9026 l 0,0.1276 -1.422146,0 c -1.18512,0.01 -1.850613,0.5652 -1.850613,1.4677 0,0.8661 0.656376,1.5133 1.704752,1.5133 0.69284,0 1.23982,-0.2188 1.577124,-0.6472 l 0,0.5925 1.166889,0 m -2.461407,-0.8569 c -0.537862,0 -0.86605,-0.2644 -0.86605,-0.6746 0,-0.4285 0.291723,-0.6017 0.920748,-0.6017 l 1.230703,0 0,0.4376 c -0.06381,0.474 -0.601677,0.8387 -1.285401,0.8387"
         id="path3236-0" />
      <path
         inkscape:connector-curvature="0"
         d="m 19.615684,1034.1378 c -0.264373,0.1276 -0.492281,0.2006 -0.69284,0.2006 -0.319071,0 -0.510514,-0.155 -0.510514,-0.62 l 0,-2.197 1.394797,0 0,-0.866 -1.394797,0 0,-1.3401 -1.176005,0 0,1.3401 -0.692841,0 0.0091,0.866 0.683724,0 0,2.4067 c 0,1.0028 0.638143,1.4586 1.431262,1.4586 0.428467,0 0.847818,-0.1276 1.221587,-0.3555 l -0.27349,-0.8934"
         id="path3238-0" />
      <path
         inkscape:connector-curvature="0"
         d="m 22.638533,1030.4183 c -1.45861,0 -2.479639,1.0028 -2.479639,2.4888 0,1.4677 0.99368,2.4705 2.506988,2.4705 0.856933,0 1.568008,-0.3099 2.051172,-0.8387 l -0.638142,-0.6655 c -0.34642,0.3556 -0.811353,0.547 -1.31275,0.547 -0.711073,0 -1.23982,-0.4194 -1.394797,-1.1122 l 3.600946,0 c 0.118512,-1.7686 -0.619911,-2.8899 -2.333778,-2.8899 m -1.294517,2.0968 c 0.109395,-0.7202 0.601678,-1.176 1.303634,-1.176 0.738421,0 1.221587,0.4558 1.248935,1.176 l -2.552569,0"
         id="path3240-9" />
      <path
         inkscape:connector-curvature="0"
         d="m 11.058801,1037.1097 0,0.7293 c -0.337304,-0.4923 -0.884284,-0.7749 -1.5862399,-0.7658 -1.2671673,0 -2.133219,0.939 -2.133219,2.3156 0,1.4039 0.8751681,2.352 2.1696843,2.352 0.6928396,0 1.2215876,-0.2735 1.5497746,-0.7658 l 0,0.5744 c 0,0.7748 -0.556097,1.258 -1.4312624,1.258 -0.583444,0 -1.0757263,-0.1823 -1.5224256,-0.5105 l -0.4740487,0.8569 c 0.5743277,0.392 1.2762857,0.6473 2.0602885,0.6473 1.5406562,0 2.5525702,-0.8843 2.5525702,-2.2791 l 0,-4.4123 -1.185122,0 m -1.2945176,3.7012 c -0.7748865,0 -1.2945176,-0.5743 -1.3036339,-1.3948 0.00912,-0.8113 0.5378637,-1.3948 1.3036339,-1.3948 0.7657706,0 1.2945176,0.5744 1.2945176,1.3948 0,0.8205 -0.528747,1.3948 -1.2945176,1.3948"
         id="path3242-1" />
      <path
         inkscape:connector-curvature="0"
         d="m 15.616611,1037.0732 c -1.522424,0 -2.570803,0.9937 -2.570803,2.4706 0,1.4859 1.048379,2.4887 2.570803,2.4887 1.53154,0 2.579918,-1.0028 2.579918,-2.4887 0,-1.4769 -1.048378,-2.4706 -2.579918,-2.4706 m 0,1.0211 c 0.811351,0 1.376564,0.5925 1.376564,1.4677 0,0.8752 -0.565213,1.4768 -1.376564,1.4768 -0.802236,0 -1.367448,-0.6016 -1.367448,-1.4768 0,-0.8752 0.565212,-1.4677 1.367448,-1.4677"
         id="path3244-2" />
      <path
         inkscape:connector-curvature="0"
         d="m 20.259459,1038.0487 0,-0.939 -1.185122,0 0,4.8772 1.185122,0 0,-2.352 c 0,-0.8842 0.629027,-1.4859 1.65917,-1.4221 l 0,-1.1487 c -0.756654,0.01 -1.330983,0.3465 -1.65917,0.9846"
         id="path3246-6" />
      <path
         inkscape:connector-curvature="0"
         d="m 27.097774,1037.1097 -1.194238,0 -1.267168,3.5463 -1.385681,-3.5463 -1.230703,0 2.014707,4.7952 -0.145862,0.3191 c -0.154977,0.3373 -0.401118,0.4923 -0.711073,0.4923 -0.218791,0 -0.401118,-0.073 -0.629026,-0.2462 l -0.510514,0.9025 c 0.373769,0.3009 0.738423,0.4376 1.212471,0.4376 0.774886,0 1.349216,-0.4011 1.65917,-1.2125 l 2.187917,-5.488"
         id="path3248-9" />
    </g>
  </g>
</svg>
