<?xml version="1.0" encoding="UTF-8" standalone="no"?>
<!-- Generator: Adobe Illustrator 18.0.0, SVG Export Plug-In . SVG Version: 6.00 Build 0)  -->

<svg
   xmlns:dc="http://purl.org/dc/elements/1.1/"
   xmlns:cc="http://creativecommons.org/ns#"
   xmlns:rdf="http://www.w3.org/1999/02/22-rdf-syntax-ns#"
   xmlns:svg="http://www.w3.org/2000/svg"
   xmlns="http://www.w3.org/2000/svg"
   xmlns:sodipodi="http://sodipodi.sourceforge.net/DTD/sodipodi-0.dtd"
   xmlns:inkscape="http://www.inkscape.org/namespaces/inkscape"
   version="1.1"
   id="Capa_1"
   x="0px"
   y="0px"
   viewBox="0 0 455.731 455.731"
   style="enable-background:new 0 0 455.731 455.731;"
   xml:space="preserve"
   inkscape:version="0.48.5 r10040"
   width="100%"
   height="100%"
   sodipodi:docname="hatena.svg"><metadata
     id="metadata52"><rdf:RDF><cc:Work
         rdf:about=""><dc:format>image/svg+xml</dc:format><dc:type
           rdf:resource="http://purl.org/dc/dcmitype/StillImage" /><dc:title></dc:title></cc:Work></rdf:RDF></metadata><defs
     id="defs50" /><sodipodi:namedview
     pagecolor="#ffffff"
     bordercolor="#666666"
     borderopacity="1"
     objecttolerance="10"
     gridtolerance="10"
     guidetolerance="10"
     inkscape:pageopacity="0"
     inkscape:pageshadow="2"
     inkscape:window-width="1366"
     inkscape:window-height="702"
     id="namedview48"
     showgrid="false"
     showguides="true"
     inkscape:guide-bbox="true"
     inkscape:zoom="0.51784935"
     inkscape:cx="-118.76041"
     inkscape:cy="251.03826"
     inkscape:window-x="0"
     inkscape:window-y="27"
     inkscape:window-maximized="1"
     inkscape:current-layer="g10" /><rect
     id="rect5"
     height="455.73099"
     width="455.73099"
     style="fill:#0071b9"
     y="0"
     x="0" /><g
     id="g10"><g
       style="font-size:310.44900513px;font-style:normal;font-variant:normal;font-weight:bold;font-stretch:normal;line-height:125%;letter-spacing:0px;word-spacing:0px;fill:#ffffff;fill-opacity:1;stroke:none;font-family:Dejima;-inkscape-font-specification:Dejima Bold"
       id="text3081"><g
         id="g3092"
         transform="translate(-2.6111277,11.200479)"><path
           id="path3088"
           d="m 188.57937,189.07628 c 9.19611,1.4e-4 16.16908,-2.02101 20.91892,-6.06346 4.74957,-4.04215 7.12442,-10.00455 7.12457,-17.8872 -1.5e-4,-7.78126 -2.375,-13.69313 -7.12457,-17.73561 -4.74984,-4.14317 -11.72281,-6.21485 -20.91892,-6.21504 l -32.28791,0 0,47.90131 32.28791,0 m 1.97062,98.98594 c 11.72255,4e-5 20.51456,-2.47587 26.37604,-7.42774 5.96224,-4.95177 8.94344,-12.43002 8.9436,-22.43479 -1.6e-4,-9.80251 -2.93083,-17.12918 -8.79201,-21.98003 -5.86149,-4.95173 -14.70402,-7.42764 -26.52763,-7.42774 l -34.25853,0 0,59.2703 34.25853,0 m 54.26794,-81.40191 c 12.53096,3.63819 22.23248,10.35851 29.1046,20.16099 6.8717,9.80268 10.30766,21.82853 10.30787,36.07757 -2.1e-4,21.82849 -7.37741,38.09875 -22.13162,48.81083 -14.75459,10.71211 -37.18935,16.06816 -67.30437,16.06816 l -96.863727,0 0,-226.31853 87.616957,0 c 31.42877,2.2e-4 54.16671,4.74992 68.21389,14.24912 14.14787,9.49962 21.2219,24.70877 21.2221,45.62751 -2e-4,11.01544 -2.57717,20.41379 -7.73091,28.19508 -5.15413,7.68051 -12.63238,13.39026 -22.43479,17.12927"
           inkscape:connector-curvature="0" /><path
           sodipodi:nodetypes="cccccccscccccccccscscc"
           inkscape:connector-curvature="0"
           id="path3090"
           style="font-style:normal;font-variant:normal;font-weight:bold;font-stretch:normal;font-family:Droid Sans;-inkscape-font-specification:Droid Sans Bold"
           d="m 336.28469,264.21077 -26.63483,-0.39993 0.26193,-157.65234 52.44891,0 0.66186,158.53504 M 309.30545,306.101 c -2e-5,-4.74968 0.65686,-8.74145 1.97062,-11.97532 1.41479,-3.33487 3.33488,-6.01289 5.76029,-8.03409 2.42535,-2.0211 5.25496,-3.48644 8.48884,-4.396 3.2338,-0.90947 6.72029,-1.36423 10.45946,-1.36428 3.53697,5e-5 6.87187,0.45481 10.0047,1.36428 3.23379,0.90956 6.0634,2.3749 8.48884,4.396 2.42532,2.0212 4.34542,4.69922 5.76029,8.03409 1.41474,3.23387 2.12214,7.22564 2.12221,11.97532 -7e-5,4.54761 -0.70747,8.43833 -2.12221,11.67216 -1.41487,3.23385 -3.33497,5.91187 -5.76029,8.03408 -2.42544,2.12221 -5.25505,3.63807 -8.48884,4.54759 -3.13283,1.01057 -6.46773,1.51586 -10.0047,1.51587 -3.73917,-10e-6 -7.22566,-0.5053 -10.45946,-1.51587 -3.23388,-0.90952 -6.06349,-2.42538 -8.48884,-4.54759 -2.42541,-2.12221 -4.3455,-4.80023 -5.76029,-8.03408 -1.31376,-3.23383 -1.97064,-7.12455 -1.97062,-11.67216" /></g></g></g><g
     id="g18" /><g
     id="g20" /><g
     id="g22" /><g
     id="g24" /><g
     id="g26" /><g
     id="g28" /><g
     id="g30" /><g
     id="g32" /><g
     id="g34" /><g
     id="g36" /><g
     id="g38" /><g
     id="g40" /><g
     id="g42" /><g
     id="g44" /><g
     id="g46" /></svg>